<svg xmlns="http://www.w3.org/2000/svg" viewBox="0 0 356.96 356.96"><g id="레이어_2"><g id="Layer_1"><path d="M148,226a6.12,6.12,0,0,0,6.12-6.12l0-32.74h7.58l0,32.74a6.12,6.12,0,1,0,12.24,0l0-32.74h9l0,32.74a6.12,6.12,0,1,0,12.23,0V187.16h7.61l0,32.74a6.12,6.12,0,1,0,12.24,0l.11-35.88c0-4.59-4-8.3-9-8.3H187.43l-6.22-8.06-.76-1a2.83,2.83,0,0,0-3.82,0l-.77,1-6.22,8.05H151c-5,0-9.05,3.71-9.05,8.3l-.07,35.88A6.12,6.12,0,0,0,148,226Z" style="fill:#912642"></path><path d="M148.06,164.62a6.12,6.12,0,0,0,6.12-6.12V128.37H203V158.5a6.12,6.12,0,0,0,12.24,0V110.57a6.12,6.12,0,0,0-12.24,0v7.06h-48.8v-7.06a6.12,6.12,0,0,0-12.24,0V158.5A6.13,6.13,0,0,0,148.06,164.62Z" style="fill:#912642"></path><path d="M161.58,115.55h34a5,5,0,1,0,0-10h-34a5,5,0,0,0,0,10Z" style="fill:#912642"></path><path d="M191.06,129.23a6.1,6.1,0,0,0-5.71,4H172a6.11,6.11,0,0,0-11.84,2.12v21.12a6.12,6.12,0,0,0,6.12,6.11h24.77a6.12,6.12,0,0,0,6.12-6.11V135.34A6.12,6.12,0,0,0,191.06,129.23Zm-18.65,23.22v-9.2H185v9.2Z" style="fill:#912642"></path><path d="M161,273.64a34.83,34.83,0,0,1,13.61,9.93c.53.63,1,1.29,1.52,2a3.65,3.65,0,0,0,2.24.82,3.82,3.82,0,0,0,2.65-1.17l.09-.13a34.87,34.87,0,0,1,14.79-11.41,34.62,34.62,0,0,1,35,5.29l.39.33a3.61,3.61,0,0,0,4.43.23,3.41,3.41,0,0,0,1.2-3.18c-.06-.31-.16-.6-.23-.9a38.23,38.23,0,0,0-2.67-7.69c21.76-1.41,39-24.36,39-46.48,0-.51-.06-1-.08-1.51A41.56,41.56,0,0,0,281.14,161a41.54,41.54,0,0,0-24.61-53,41.69,41.69,0,0,0-48.82-31.16,41.67,41.67,0,0,0-58.62,0,42.2,42.2,0,0,0-8.31-.83,41.68,41.68,0,0,0-40.52,32,41.55,41.55,0,0,0-24.6,53,41.54,41.54,0,0,0,8.28,58.72c0,.5-.08,1-.08,1.51,0,22.12,17.23,45.07,39,46.48a39.51,39.51,0,0,0-2.67,7.69c-.06.3-.16.59-.22.9a3.38,3.38,0,0,0,1.19,3.18,3.61,3.61,0,0,0,4.43-.23l.4-.33a34.62,34.62,0,0,1,35-5.29ZM264.6,202.35a26.18,26.18,0,0,1-9.65,7.13l-.23.1a1.9,1.9,0,0,0-1.06,1.7,2.13,2.13,0,0,0,.12.62l.05.16a25.78,25.78,0,0,1,.91,6.73,26.56,26.56,0,0,1-.51,5.16c-2.4,12-13,25.91-25.64,25.91a26,26,0,0,1-12.26-3.06c-.32-.17-.62-.35-.93-.53a36.81,36.81,0,0,0-17.84-4.59,37.54,37.54,0,0,0-4.13.24c-1.07.12-2.1.32-3.14.53l-8.23-12.1-1-1.49a3.43,3.43,0,0,0-5.07,0l-1,1.49-8.25,12.13c-1.11-.23-2.22-.43-3.35-.56a37.72,37.72,0,0,0-4.14-.24,36.84,36.84,0,0,0-17.84,4.59c-.31.18-.61.36-.93.53a26,26,0,0,1-12.25,3.06c-12.68,0-23.25-13.94-25.64-25.91a25.56,25.56,0,0,1,.39-11.89l.05-.16a1.86,1.86,0,0,0,.13-.62,1.9,1.9,0,0,0-1.07-1.7l-.23-.1a26,26,0,0,1-6-44.21l.35-.28a1.88,1.88,0,0,0,.5-1.28,1.73,1.73,0,0,0-.12-.6c-.19-.27-.37-.55-.56-.84a25.94,25.94,0,0,1,18.53-39.79l.17,0a1.9,1.9,0,0,0,1.76-1.76c0-.07,0-.14,0-.21v-.1a26.18,26.18,0,0,1,25.4-26c.25,0,.5,0,.75,0a25.94,25.94,0,0,1,11.13,2.55l.11.05a2,2,0,0,0,.7.14A1.94,1.94,0,0,0,156,96.5c.13-.23.28-.46.42-.69a26.29,26.29,0,0,1,8.32-8.24,26,26,0,0,1,27.37,0,26.29,26.29,0,0,1,8.32,8.24c.15.23.29.46.43.69a1.92,1.92,0,0,0,1.36.57,2.09,2.09,0,0,0,.71-.14l.1-.05a25.94,25.94,0,0,1,11.13-2.55c.25,0,.5,0,.75,0a26.12,26.12,0,0,1,22.6,14.39,25.85,25.85,0,0,1,2.8,11.63v.1c0,.07,0,.14,0,.21a1.91,1.91,0,0,0,1.77,1.76l.16,0a26,26,0,0,1,18.53,39.79c-.18.29-.37.57-.56.84a1.73,1.73,0,0,0-.12.6,1.89,1.89,0,0,0,.51,1.28l.34.28a26,26,0,0,1,3.7,37.08Z" style="fill:#912642"></path><path d="M56.22,178.31A122.18,122.18,0,1,1,178.4,300.49,122.18,122.18,0,0,1,56.22,178.31ZM178.4,304A125.7,125.7,0,1,0,52.7,178.31,125.69,125.69,0,0,0,178.4,304Z" style="fill:#912642"></path><path d="M3.78,178.48a174.7,174.7,0,1,1,174.7,174.7A174.71,174.71,0,0,1,3.78,178.48ZM178.48,357A178.48,178.48,0,1,0,0,178.48,178.48,178.48,0,0,0,178.48,357Z" style="fill:#912642"></path><path d="M50,178.41A128.49,128.49,0,1,1,178.47,306.9,128.49,128.49,0,0,1,50,178.41ZM178.46,308.05A129.67,129.67,0,1,0,48.79,178.39,129.66,129.66,0,0,0,178.46,308.05Z" style="fill:#912642"></path><path d="M7.66,178.41A170.82,170.82,0,1,1,178.47,349.23,170.82,170.82,0,0,1,7.66,178.41Zm170.8,172a172,172,0,1,0-172-172A172,172,0,0,0,178.46,350.42Z" style="fill:#912642"></path><path d="M324.4,147.23a4.35,4.35,0,1,0-4.34-4.34A4.34,4.34,0,0,0,324.4,147.23Z" style="fill:#912642"></path><path d="M33.21,147.23a4.35,4.35,0,1,0-4.34-4.34A4.34,4.34,0,0,0,33.21,147.23Z" style="fill:#912642"></path><path d="M37,175c1.92.07,5,.35,5.64-.9h.12l-.22,6.14c-.21,5.71-5.52,9.08-13.83,8.78S14.84,184.73,15,179.12l.23-6h.12c1.37,1.3,3.38,1.22,5.84,1.31Zm-18.54,1.89a5.51,5.51,0,0,0-.36,1.82c-.14,3.73,3,7.18,10.22,7.44s11.07-2.07,11.22-6.25a6.05,6.05,0,0,0-.38-2.27Z" style="fill:#912642"></path><path d="M32.63,212.57c-8.44,1.18-15.15-2.16-15.84-7.1s4.62-9.87,13.11-11.06c7.86-1.09,15,2.08,15.53,7.32C46.19,206.94,40.08,211.54,32.63,212.57Zm-2-15.38c-5.79.81-11.41,4.1-10.87,8s5.45,5.54,11.62,4.68,11.56-4,11-7.88S36.91,196.32,30.66,197.19Z" style="fill:#912642"></path><path d="M27.26,223.8c-2.22.74-3.82,1.24-4.63,2.91l-.11,0-1.41-4.21.12,0c1.65.85,3.24.32,5.46-.42l15.81-5.26c2.22-.74,3.81-1.27,4.59-2.91l.12,0,1.15,3.48h0a3.22,3.22,0,0,0-.87.69l-.68.6-15.42,14.8,15-5c2.22-.74,3.81-1.24,4.58-2.9l.12,0,1.39,4.19-.12,0c-1.6-.84-3.18-.31-5.4.43l-22.24,7.4c.39-2,1.45-3.17,3.36-5l14.53-13.9Z" style="fill:#912642"></path><path d="M55.79,247.44l0-.07a4.88,4.88,0,0,0,.3-5.11c-1.71-3.51-6.85-4.33-12.9-1.38s-9.22,8.06-7.48,11.62a8,8,0,0,0,2.24,2.79l5.4-2.64c1.73-.84,3.56-1.76,3.75-3.1l.11-.06,1.68,3.45-.11.05a8.11,8.11,0,0,0-1.68.68l-8.63,4.21a7.5,7.5,0,0,0-1.64.93A20.47,20.47,0,0,1,33,254c-2.81-5.77.79-11.73,8.34-15.41,8.07-3.93,15-2.53,17.64,2.92a11.8,11.8,0,0,1,1.09,3.84Z" style="fill:#912642"></path><path d="M59,254.78c1.58-1.1,4.18-2.71,4-4.11l.1-.07,3.52,5c3.27,4.68,1.06,10.56-5.75,15.32s-13.64,4.91-16.86.31l-3.44-4.93.1-.07c1.88.21,3.44-1.06,5.46-2.47ZM45.36,267.44a5.5,5.5,0,0,0,.81,1.67c2.13,3.05,6.71,3.92,12.64-.21s7.6-8.31,5.21-11.74a6.36,6.36,0,0,0-1.68-1.58Z" style="fill:#912642"></path><path d="M64.27,291.66a5.49,5.49,0,0,1-5.86-1.24,5.18,5.18,0,0,1-1-5.32c.85-2.62,2.93-4.5,5.12-6.56l8.14-7.63c1.37-1.29,3.72-3.25,3.42-4.72l.09-.09,3.26,3.47-.09.09c-1.44-.37-3.56,1.82-4.93,3.11l-8.14,7.63c-4,3.81-5,6.6-3.22,8.49,1,1,2.64,1.4,4.64.66a8.52,8.52,0,0,0,3.13-2.21l9.18-8.61c1.37-1.29,3.7-3.26,3.42-4.72l.09-.08,3.25,3.47-.07.1c-1.45-.39-3.58,1.81-5,3.12L68.27,291.4c-1.37,1.29-3.69,3.27-3.4,4.74l-.09.09-2.52-2.69Z" style="fill:#912642"></path><path d="M85.41,285.73c1.19-1.46,3.22-3.74,2.73-5.16l.08-.1,3.74,3-.08.1c-1.47-.22-3.3,2.28-4.48,3.74l-9.9,12.25c-1.21,1.49-3.25,3.77-2.75,5.19l-.08.1-3.74-3,.08-.1c1.49.19,3.32-2.31,4.5-3.77Zm4.74,3.94c1.88-1,4.68-2.07,4.16-4.11l.08-.09,3.51,2.83,0,0-12.23,6-3,11.79a10.3,10.3,0,0,0-.13,5l-.08.1-1.83-1.49a3.19,3.19,0,0,1-1.07-3.18L83,293.26Z" style="fill:#912642"></path><path d="M104.56,326c-.87-3.48-1.2-3.31-.08-7.55l4-15.18c.58-2.27,1.42-4.88.9-6.7l.06-.12,3.3,1.59a11.6,11.6,0,0,0-1,2.84l-5,19.13,9.51-13c1.53-2.09,3.16-4.32,2.42-6l0-.11,3.19,1.52a13.73,13.73,0,0,0-1.49,4l-4.68,17.82,9.17-12.56c1.44-1.95,3.65-4.65,2.37-6.51l.06-.11,3.48,1.66-17.2,23.64c-.94-3.37-1.19-3.26-.08-7.5l3.73-14.15Z" style="fill:#912642"></path><path d="M147.47,325.35c-2.32,8.2-8.08,13-12.88,11.65s-7.19-8.19-4.86-16.43c2.16-7.64,8-12.91,13-11.28C147.77,310.68,149.52,318.12,147.47,325.35ZM132.58,321c-1.59,5.63-.84,12.09,2.95,13.16s7.27-2.77,9-8.76,1-12.17-2.79-13.24S134.3,314.91,132.58,321Z" style="fill:#912642"></path><path d="M169.28,317.38a11.54,11.54,0,0,0,.64-2.54v0l4.31.44,0,.13c-.62.23-.92,1.41-1,2.37l-.47,20.57c0,2,0,3.11.83,4.37v.13l-4.81-.5v-.12c.92-.37,1.2-1.6,1.35-3l.65-20.18-8.05,23.23A11.43,11.43,0,0,1,161,337l-2.79-19.23L155,335.47c-.46,2.51-.82,4.32.26,5.32v.12l-4.06-.42v-.12c1.2-1.43,1.56-3.45,2-5.68l3.22-17.26c.22-1.15.67-2.79-.37-3.94v-.13l4.36.45v0a7.44,7.44,0,0,0,.15,1.91l2.79,18.81Z" style="fill:#912642"></path><path d="M184.84,338.93l3.2.35c1.67.18,3.35-.78,4.52-2.67h.07l-.87,5.51-10.44.48v-.12c1.25-.81.95-3.9.87-5.77L181.46,321c-.09-1.92-.08-5-1.39-5.71v-.12l8-.37c.43,0,.86,0,1.17-.26h.07l.23,4.88h-.08a2.84,2.84,0,0,0-3-1.54,9.24,9.24,0,0,0-2.54.41l.36,7.77,3-.14a1.63,1.63,0,0,0,1.09-.3h.07l.2,4.42h-.07c-.46-1.2-1.51-1.11-2.28-1.07l-1.85.08Z" style="fill:#912642"></path><path d="M202.24,335.46c.41,2.31.69,4,2.22,5l0,.12-4.36.79,0-.13c1.07-1.51.78-3.15.36-5.46l-3-16.4c-.41-2.31-.71-3.95-2.22-5l0-.12,3.6-.65v0a3.28,3.28,0,0,0,.55,1l.5.76,12.46,17.37-2.82-15.59c-.42-2.3-.69-3.95-2.22-4.95l0-.12,4.34-.79,0,.13c-1.06,1.46-.76,3.11-.34,5.41l4.17,23.07c-1.93-.66-2.94-1.89-4.45-4l-11.69-16.36Z" style="fill:#912642"></path><path d="M216.39,309.81l1.1-.32,2.34,8.07-1.11.32Z" style="fill:#912642"></path><path d="M233.77,309.07a4.86,4.86,0,0,0-4.61-1.05c-1.34.51-2.7,2-1.66,4.71,2.05,5.34,10.07,2.17,12.84,9.39,1.6,4.17.47,9.08-3.18,10.48a8.51,8.51,0,0,1-4.64.44L230,328.42c2.15,1.46,4.54,2,6.37,1.27a4,4,0,0,0,1.79-5.34c-2.33-6.08-10-1.9-13.14-10.17-1.88-4.91.42-7.94,3.27-9a8,8,0,0,1,3.82-.48Z" style="fill:#912642"></path><path d="M269.3,312.24a5.47,5.47,0,0,1-2.3,5.53,5.18,5.18,0,0,1-5.4,0c-2.42-1.33-3.89-3.71-5.5-6.25l-6-9.4c-1-1.58-2.51-4.25-4-4.23l-.07-.1,4-2.57.07.11c-.63,1.34,1.14,3.83,2.15,5.41l6,9.41c3,4.68,5.57,6.11,7.74,4.71,1.19-.75,1.87-2.33,1.51-4.43a8.59,8.59,0,0,0-1.6-3.49l-6.76-10.59c-1-1.59-2.53-4.24-4-4.23l-.07-.11,4-2.56.08.09c-.65,1.36,1.12,3.85,2.15,5.46l8.48,13.28c1,1.58,2.52,4.23,4,4.21l.07.11-3.11,2Z" style="fill:#912642"></path><path d="M279.34,301.52c1.53,1.77,2.61,3.05,4.46,3.16l.08.09-3.34,2.91-.09-.1c.16-1.85-.94-3.11-2.47-4.87l-10.93-12.59c-1.54-1.76-2.63-3-4.44-3.12l-.08-.09,2.76-2.4,0,0a3.09,3.09,0,0,0,1,.54l.81.41,19.58,8.56-10.38-12c-1.54-1.76-2.61-3-4.44-3.12l-.08-.09,3.33-2.89.08.09c-.16,1.8.94,3.07,2.47,4.83L293,298.6c-2,.41-3.49-.12-5.89-1.19l-18.4-8.09Z" style="fill:#912642"></path><path d="M283.05,275.91c-1.41-1.3-3.54-3.5-5-3.1l-.09-.08,3.23-3.5.09.09c-.26,1.45,2.11,3.44,3.49,4.71l11.58,10.68c1.39,1.28,3.52,3.45,5,3.07l.09.09-3.23,3.49-.09-.08c.3-1.43-2.08-3.42-3.46-4.69Z" style="fill:#912642"></path><path d="M296.47,262.2c-2-2.33-4.19-5.07-6-4.45l-.1-.08,2.24-3,19,22.56c-2.59.25-3.2.51-6.28-.89l-15.93-7.25c-2-.9-4.15-2.05-5.95-2l-.1-.08,2.2-2.93.38.32a25.33,25.33,0,0,0,3.52,1.8l16.92,7.74Z" style="fill:#912642"></path><path d="M317.42,260.07l2-2.51c1-1.31,1.14-3.24.17-5.25l0-.06,4.18,3.7L318.62,265l-.1-.07c0-1.48-2.77-2.89-4.41-3.83l-13.65-7.85c-1.66-1-4.23-2.61-5.56-1.9l-.11-.06,4-7c.21-.36.5-.69.41-1.12l0-.07,4.24,2.44,0,.07a2.82,2.82,0,0,0-2.92,1.73,8.44,8.44,0,0,0-1,2.36l6.74,3.88,1.48-2.59A1.64,1.64,0,0,0,308,250l0-.07,3.84,2.21,0,.07c-1.25-.26-1.74.67-2.12,1.35l-.92,1.61Z" style="fill:#912642"></path><path d="M304.42,232.54c1.33-3.09,4.74-3.62,8.23-2.12s5.27,4.37,5.18,6.57l8.38-.33a24.63,24.63,0,0,0,7-1.42l-.91,2.12c-.52,1.22-1.35,1.77-3.07,1.85l-7,.31-6.33-.2c.33-2-.17-4.8-3.78-6.35-2.76-1.18-5-.45-5.54,1.14a8.71,8.71,0,0,0-.36,1.7l17.2,7.39c1.76.76,4.51,2.1,5.7,1.23l.12,0-1.9,4.4-.11,0c-.19-1.47-3.1-2.53-4.82-3.28l-14.48-6.22c-1.76-.76-4.5-2.12-5.73-1.26l-.12,0Z" style="fill:#912642"></path><path d="M315.9,214.78a4.85,4.85,0,0,0-3.64,3c-.41,1.37-.05,3.36,2.72,4.18,5.48,1.64,7.86-6.65,15.27-4.44,4.28,1.28,7.48,5.16,6.37,8.91a8.49,8.49,0,0,1-2.48,3.94l-5.21-.8c2.46-.8,4.33-2.39,4.89-4.26a4,4,0,0,0-3.15-4.68c-6.24-1.86-7.58,6.73-16.07,4.21-5-1.51-6-5.18-5.17-8.11a8.17,8.17,0,0,1,1.94-3.32Z" style="fill:#912642"></path><path d="M318.52,207.51c-1.89-.37-4.85-1.14-5.87,0l-.13,0,.93-4.66.13,0c.53,1.38,3.59,1.84,5.44,2.21l15.44,3.07c1.84.37,4.8,1.11,5.83,0l.12,0-.93,4.67-.12,0c-.49-1.38-3.56-1.83-5.4-2.2Z" style="fill:#912642"></path><path d="M336.89,193.31c2.38.14,4,.26,5.37-1h.13l-.28,5H342c-.72-1.3-3.77-1.32-5.65-1.43l-18.6-1.05-.13,2.2a3.48,3.48,0,0,0,1.5,3.08v.07L314.19,199v-.08a2.51,2.51,0,0,0,.35-.93l0-.63.53-9.33a1.79,1.79,0,0,0-.22-1.17v-.07l4.92,1.08v.07A2,2,0,0,0,318,190l-.13,2.25Z" style="fill:#912642"></path><path d="M337.09,175.23c2.5-.19,3.75-.28,5.19-1.68h.13l.37,4.87h-.13c-1.13-1.15-3.83-.77-5.79-.62l-6.17.46-10.81,5c-1.79.81-3.12,1.42-4.12,2.7l-.17-2.28a1.83,1.83,0,0,1,1-2l10.57-4.81-8-2.52c-1.07-.34-3.12-.77-4.14.71H315l-.33-4.37,15.88,5Z" style="fill:#912642"></path><path d="M51.93,113a5,5,0,1,1,6.87-2A5,5,0,0,1,51.93,113Zm-.19-18.78-.61,1.09-3.24-1.8a3.48,3.48,0,0,0-4.74,1.35l-7.22,13-2.43-1.36,9.67-17.36-4.28-2.38L26.55,108.94l7.94,4.42A3.48,3.48,0,0,0,39.23,112L46.4,99.15l2,1.11L38.8,117.47l4.29,2.39L46,114.59a10.27,10.27,0,1,0,9-16.23l1-1.73a2.46,2.46,0,0,0-4.29-2.39Z" style="fill:#912642"></path><path d="M71.4,67.24l-3.48-4,5.38-4.71h0l-3.23-3.68h0l-9.51,8.34,7,8a4.41,4.41,0,0,0,6.22.41l10.31-9-3.23-3.68Z" style="fill:#912642"></path><path d="M76.82,46.44a2.77,2.77,0,0,0-.25,3.92l.67.77-3.95,3.46,3.23,3.69,4-3.47L87,62.28l4.18-3.67L80.75,46.7A2.79,2.79,0,0,0,76.82,46.44Z" style="fill:#912642"></path><path d="M176.36,27.36a5.47,5.47,0,0,1-2.12-3.78V18.64h6.85V13.75H162.4v4.89h6.28v4.83h0A5.57,5.57,0,0,1,167,27.26a6.56,6.56,0,0,1-5.28,1.27v4.91a9.73,9.73,0,0,0,9.71-3.2h0s3.35,4.48,10.34,3.13V28.53A8.09,8.09,0,0,1,176.36,27.36Z" style="fill:#912642"></path><path d="M192,15.25h-3.94v-.49a2.78,2.78,0,1,0-5.56,0V45.05h5.56V20.14H192Z" style="fill:#912642"></path><path d="M246.31,26.61a2.79,2.79,0,0,0-3.64,1.49l-.19.46-2.37-1,.19-.45A2.78,2.78,0,0,0,235.18,25L229.82,37.7l-8.26-3.47L225.42,25l6.22,2.61,1.9-4.51-11.31-4.75-5.9,14a4.55,4.55,0,0,0,2.43,6l9.17,3.85-4.49,10.68L228.57,55l9.63-22.92,2.36,1L230.94,56l5.12,2.16L247.8,30.25A2.78,2.78,0,0,0,246.31,26.61Z" style="fill:#912642"></path><path d="M295.57,64.33,293,62l.33-.37a2.78,2.78,0,1,0-4.15-3.7L278,70.5l4.16,3.7,7.57-8.52,2.59,2.3Z" style="fill:#912642"></path><path d="M93.81,61.6a3,3,0,0,0-4.18-.28L72.21,76.59l3.23,3.68L90.9,66.72,96.37,73l4.18-3.67Z" style="fill:#912642"></path><path d="M278.66,72.34a3.86,3.86,0,0,1,.32,5.44l-5.79,6.51L269,80.59l5.09-5.73L258.53,61l3.25-3.65Z" style="fill:#912642"></path><path d="M127.41,19.82a2.78,2.78,0,0,0-1.65,3.57l.54,1.48-3.37,1.24a11.28,11.28,0,1,0,5.62,14.08l3-1.1,4.68,12.73,5.22-1.92L131,21.47A2.78,2.78,0,0,0,127.41,19.82Zm-3.35,16.81a6.08,6.08,0,1,1-2-5l6-2.21,1.86,5Z" style="fill:#912642"></path><path d="M284.25,52.73l-5.66,6.36a4.07,4.07,0,1,1-.34-5.74l1.17,1a1.46,1.46,0,0,0,2.06-.12l2.2-2.48a2.78,2.78,0,0,0-4.16-3.7l-.58.65-6.16-5.48-3.26,3.66,1.36,1.2a9.42,9.42,0,1,0,11.89,14.34l5.49-6.17Z" style="fill:#912642"></path><path d="M307.78,120.48l-.18-.33L325.34,110a3.69,3.69,0,0,0,1.37-5l-10.5-18.36L312,89.06l9.56,16.72-16.69,9.55L303,112.19l10.12-5.79a2.78,2.78,0,1,0-2.76-4.82l-10.12,5.78-1-1.71,10.12-5.78A2.78,2.78,0,1,0,306.66,95l-10.12,5.79-2.13-3.73-4.26,2.43,13.37,23.39a2.45,2.45,0,0,0,4.26-2.44Z" style="fill:#912642"></path></g></g></svg>